<svg id="Layer_1" data-name="Layer 1" xmlns="http://www.w3.org/2000/svg" viewBox="0 0 500 500"><defs><style>.cls-1{fill:#99afbd;}.cls-2{fill:#e5dcd5;}.cls-3{fill:#fff;}.cls-4{fill:#1a0f11;}.cls-5{fill:#0f130f;}.cls-6{fill:#d8b4cc;}.cls-7{fill:none;stroke:#1880c1;stroke-miterlimit:10;stroke-width:5.25px;}.cls-8{fill:#1880c1;}</style></defs><title>svg MASKOT KEPALA</title><path class="cls-1" d="M488.42,291.81v27.92A147.08,147.08,0,0,1,341.34,466.82H101.77l-26.08-120a156.56,156.56,0,0,1-14.31-32.73l-6-19.64a155.26,155.26,0,0,1,103.3-194.1,157.46,157.46,0,0,1,23.85-5.31,155.59,155.59,0,0,1,126.89,39.61,152.9,152.9,0,0,1,11.39,11.66,150.28,150.28,0,0,1,16.08,21.88,154.78,154.78,0,0,1,15.89,35.46l6,19.62a154,154,0,0,1,5.72,27.45l77.64-3.29A44.4,44.4,0,0,1,488.42,291.81Z"/><path class="cls-2" d="M470.29,256c-4-3.15-19.62-89-53.56-124.87L402,249.15Z"/><path class="cls-1" d="M235,73.36C228.22,83,200.54,101.88,195.64,97c-8.34-8.35-2.36-38.56,4.43-48.21s25.14-20.22,34.79-13.43S241.8,63.71,235,73.36Z"/><path class="cls-1" d="M72.11,119.36c9.53,7,41.81,15.91,44.87,9.69,5.22-10.59-10.17-37.27-19.7-44.22S67,73.77,60,83.31,62.57,112.41,72.11,119.36Z"/><circle class="cls-3" cx="293.64" cy="225.6" r="33.36"/><circle class="cls-3" cx="187.27" cy="245.3" r="39.92"/><circle class="cls-4" cx="186.73" cy="244.76" r="27.69"/><circle class="cls-4" cx="293.19" cy="225.15" r="23.14"/><path class="cls-5" d="M264,371.78c-2.84,8.88-9.17,22.46-22.09,27.58-7.59,3.05-17.47,3.18-30.29-2.28a43.93,43.93,0,0,1-12.81-19.7c-2.31-7.72-2.42-17.36,3.33-28.26,1.87-3.5,6.54-4.18,8.85-1,6.41,8.82,20.67,21.87,47.36,17.2A5,5,0,0,1,264,371.78Z"/><path class="cls-6" d="M241.92,399.36c-7.59,3.05-17.47,3.18-30.29-2.28a43.93,43.93,0,0,1-12.81-19.7,28.86,28.86,0,0,1,14.05-3.6A29.27,29.27,0,0,1,241.92,399.36Z"/><circle class="cls-6" cx="127.11" cy="330.33" r="31.93"/><path class="cls-2" d="M393.06,249.53c-1.6-.94-7.37-26.09-21.25-36.93l-5.06,38Z"/><rect class="cls-4" x="110.14" y="150.62" width="48.6" height="9.22" transform="translate(-38.88 45.09) rotate(-16.67)"/><circle class="cls-7" cx="187.71" cy="245.45" r="51.89"/><circle class="cls-7" cx="298.56" cy="223.67" r="47.14"/><line class="cls-7" x1="238.8" y1="236.43" x2="252.1" y2="231.6"/><polygon class="cls-8" points="134.44 256.67 15.59 256.67 11.58 232.84 134.44 245.39 134.44 256.67"/><polygon class="cls-8" points="349.32 221.47 394.32 198.11 388.18 182.55 345.7 214.48 349.32 221.47"/><path class="cls-3" d="M426.28,152.38S447,191,452.19,212.73h-9.45Z"/><rect class="cls-4" x="240.5" y="143.8" width="48.6" height="9.88" transform="translate(-9 17.29) rotate(-3.68)"/></svg>